<svg width="256" height="256" viewBox="0 0 256 256" fill="none" xmlns="http://www.w3.org/2000/svg">
<rect width="256" height="256" rx="43.7437" fill="#11410D"/>
<g clip-path="url(#clip0_539_1983)">
<path d="M215.251 146.073C215.271 151.216 210.59 155.086 205.529 154.133C199.349 152.971 192.598 151.996 185.333 151.369C179.051 150.827 173.088 150.606 167.495 150.615C160.495 150.625 156.754 158.858 161.336 164.144C170.414 174.61 179.491 185.076 188.569 195.542C191.541 198.968 191.153 204.157 187.706 207.104L178.756 214.761C174.928 218.034 169.079 217.11 166.45 212.817C162.467 206.311 157.874 199.445 152.587 192.39C146.301 184.003 139.985 176.617 133.944 170.175C130.713 166.73 125.239 166.702 122.003 170.145C115.875 176.664 109.458 184.16 103.081 192.7C97.9004 199.639 93.397 206.391 89.4863 212.795C86.8594 217.097 81.0055 218.028 77.1735 214.751C74.1935 212.202 71.212 209.654 68.2319 207.104C64.7835 204.155 64.397 198.968 67.3694 195.541L94.6248 164.117C99.207 158.833 95.4691 150.604 88.4707 150.588C82.7759 150.574 76.6946 150.801 70.2813 151.369C63.1601 151.999 56.5391 152.969 50.4745 154.124C45.436 155.083 40.7734 151.211 40.7734 146.09V132.797C40.7734 127.96 44.957 124.181 49.7757 124.662C78.0042 127.484 104.215 128.562 127.971 128.562C151.726 128.562 177.957 127.484 206.199 124.659C211.007 124.178 215.184 127.937 215.201 132.762C215.218 137.198 215.234 141.635 215.251 146.071V146.073Z" fill="#E4FF97"/>
<path d="M162.054 42.3839C166.513 44.2295 168.413 49.5072 166.153 53.7675C161.522 62.4986 156.874 72.2335 152.504 82.9555C148.274 93.3353 144.883 103.217 142.15 112.398C141.116 115.871 137.927 118.257 134.3 118.257H121.645C118.017 118.257 114.828 115.871 113.794 112.398C111.061 103.217 107.669 93.3353 103.44 82.9555C99.07 72.2335 94.4241 62.4986 89.7918 53.7675C87.5318 49.5072 89.4311 44.2295 93.8905 42.3839C96.2991 41.3878 98.7077 40.39 101.116 39.3938C105.292 37.6664 110.081 39.6467 111.812 43.8177L120.411 64.5531C123.201 71.2827 132.745 71.2827 135.535 64.5531L144.133 43.8192C145.862 39.6467 150.651 37.6664 154.828 39.3938L162.054 42.3839Z" fill="#E4FF97"/>
</g>
<defs>
<clipPath id="clip0_539_1983">
<rect width="174.478" height="177.957" fill="white" transform="translate(40.7588 38.7734)"/>
</clipPath>
</defs>
</svg>
